HIERARCHY
ROOT Pelvis
{
	OFFSET 0.000000 0.000000 0.000000
	CHANNELS 6 Xposition Yposition Zposition Xrotation Yrotation Zrotation
	JOINT LeftUpLeg_virtual
	{
		OFFSET 0.000000 0.000000 0.000000
		CHANNELS 3 Xrotation Yrotation Zrotation
		JOINT LeftUpLeg
		{
			OFFSET 8.479700 -4.795502 -0.379100
			CHANNELS 3 Xrotation Yrotation Zrotation
			JOINT LeftLeg
			{
				OFFSET 0.024144 -32.555107 0.112900
				CHANNELS 3 Xrotation Yrotation Zrotation
				JOINT LeftFoot
				{
					OFFSET -0.024144 -32.638630 -3.012600
					CHANNELS 3 Xrotation Yrotation Zrotation
					JOINT LeftToeBase
					{
						OFFSET 0.970200 -13.225400 11.864200
						CHANNELS 3 Xrotation Yrotation Zrotation
						End Site
						{
							OFFSET 0 0 0
						}
					}
				}
			}
		}
	}
	JOINT RightUpLeg_virtual
	{
		OFFSET 0.000000 0.000000 0.000000
		CHANNELS 3 Xrotation Yrotation Zrotation
		JOINT RightUpLeg
		{
			OFFSET -8.479700 -4.795502 -0.379100
			CHANNELS 3 Xrotation Yrotation Zrotation
			JOINT RightLeg
			{
				OFFSET -0.023144 -32.555092 0.112900
				CHANNELS 3 Xrotation Yrotation Zrotation
				JOINT RightFoot
				{
					OFFSET 0.023144 -32.638641 -3.012700
					CHANNELS 3 Xrotation Yrotation Zrotation
					JOINT RightToeBase
					{
						OFFSET -0.970200 -13.225400 11.864200
						CHANNELS 3 Xrotation Yrotation Zrotation
						End Site
						{
							OFFSET 0 0 0
						}
					}
				}
			}
		}
	}
	JOINT Hips_virtual
	{
		OFFSET 0.000000 0.000000 0.000000
		CHANNELS 3 Xrotation Yrotation Zrotation
		JOINT Hips
		{
			OFFSET -0.000000 -0.000000 -0.000000
			CHANNELS 3 Xrotation Yrotation Zrotation
			JOINT Spine
			{
				OFFSET 0.000000 7.722000 1.166200
				CHANNELS 3 Xrotation Yrotation Zrotation
				JOINT Spine1
				{
					OFFSET 0.000000 12.024101 0.248800
					CHANNELS 3 Xrotation Yrotation Zrotation
					JOINT Spine2
					{
						OFFSET 0.000000 11.502998 -0.491200
						CHANNELS 3 Xrotation Yrotation Zrotation
						JOINT Neck_virtual
						{
							OFFSET 0.000000 0.000000 0.000000
							CHANNELS 3 Xrotation Yrotation Zrotation
							JOINT Neck
							{
								OFFSET 0.000000 18.430702 -3.123100
								CHANNELS 3 Xrotation Yrotation Zrotation
								JOINT Head
								{
									OFFSET 0.000000 9.051102 1.034000
									CHANNELS 3 Xrotation Yrotation Zrotation
									End Site
									{
										OFFSET 0 0 0
									}
								}
							}
						}
						JOINT LeftShoulder_virtual
						{
							OFFSET 0.000000 0.000000 0.000000
							CHANNELS 3 Xrotation Yrotation Zrotation
							JOINT LeftShoulder
							{
								OFFSET 6.197800 13.665199 -4.064700
								CHANNELS 3 Xrotation Yrotation Zrotation
								JOINT LeftArm
								{
									OFFSET 7.778100 -0.187103 -1.709300
									CHANNELS 3 Xrotation Yrotation Zrotation
									JOINT LeftForeArm
									{
										OFFSET 22.049376 0.000000 0.000000
										CHANNELS 3 Xrotation Yrotation Zrotation
										JOINT LeftHand
										{
											OFFSET 23.009392 0.000000 0.000000
											CHANNELS 3 Xrotation Yrotation Zrotation
											End Site
											{
												OFFSET 0 0 0
											}
										}
									}
								}
							}
						}
						JOINT RightShoulder_virtual
						{
							OFFSET 0.000000 0.000000 0.000000
							CHANNELS 3 Xrotation Yrotation Zrotation
							JOINT RightShoulder
							{
								OFFSET -6.197800 13.665199 -4.064700
								CHANNELS 3 Xrotation Yrotation Zrotation
								JOINT RightArm
								{
									OFFSET -7.778100 -0.187103 -1.709300
									CHANNELS 3 Xrotation Yrotation Zrotation
									JOINT RightForeArm
									{
										OFFSET -22.049376 0.000000 0.000000
										CHANNELS 3 Xrotation Yrotation Zrotation
										JOINT RightHand
										{
											OFFSET -23.009392 0.000000 0.000000
											CHANNELS 3 Xrotation Yrotation Zrotation
											End Site
											{
												OFFSET 0 0 0
											}
										}
									}
								}
							}
						}
					}
				}
			}
		}
	}
}
MOTION
Frames: 11
Frame Time: 0.03333333
9.545136 73.832664 -6.759781 0.000000 0.000000 0.000000 55.101189 -6.934049 4.433653 -88.737777 -5.808506 5.313398 50.021491 10.047073 -4.427561 -13.348021 13.678501 -2.506919 0.000000 0.000000 0.000000 55.101189 -6.934049 4.433653 -63.164346 6.972983 -5.485845 64.374799 2.397972 -4.945316 0.396704 -2.962832 5.719328 0.000000 0.000000 0.000000 55.101189 -6.934049 4.433653 0.000000 0.000000 0.000000 6.431844 0.371776 -0.816255 15.063525 1.404745 -0.847226 0.000000 0.000000 0.000000 25.668443 1.557015 -0.177842 -24.368121 -0.913412 3.954656 0.000000 0.000000 0.000000 25.668443 1.557015 -0.177842 3.359792 -11.332868 0.850119 -25.850603 -35.679720 -27.707661 -0.000007 -43.985264 -0.000001 0.000000 0.000000 0.000000 25.668443 1.557015 -0.177842 0.611288 31.893640 8.610637 -33.996823 35.443764 11.882233 -0.000004 24.919383 -0.000001 0.000000 0.000000 0.000000 
9.512323 74.433746 -6.622766 0.000000 0.000000 0.000000 53.789119 -7.383454 4.359686 -86.224349 -5.696548 5.698082 48.325894 10.056071 -4.434612 -12.806665 13.820780 -2.420095 0.000000 0.000000 0.000000 53.789119 -7.383454 4.359686 -64.831520 7.048640 -5.434296 65.179382 1.591268 -4.662425 -1.044149 -2.964548 5.552774 0.000000 0.000000 0.000000 53.789119 -7.383454 4.359686 0.000001 0.000001 -0.000000 6.387075 0.318143 -0.780509 14.959055 1.376009 -0.738084 0.000000 0.000000 0.000000 25.530284 1.548437 -0.069472 -24.070878 -0.806833 3.898660 0.000000 0.000000 0.000000 25.530284 1.548437 -0.069472 3.327514 -11.257728 0.298058 -24.534524 -35.097316 -28.878009 -0.000011 -43.052766 0.000001 0.000000 0.000000 0.000000 25.530284 1.548437 -0.069472 0.454113 31.771882 9.248692 -33.054803 34.716871 13.054989 0.000003 24.898772 -0.000007 0.000000 0.000000 0.000000 
9.473781 75.021126 -6.470291 0.000000 0.000000 0.000000 52.448927 -7.860434 4.259328 -83.678560 -5.549772 6.127697 46.647883 10.025210 -4.452333 -12.292741 13.969072 -2.325181 0.000000 0.000000 0.000000 52.448927 -7.860434 4.259328 -66.161379 6.930012 -5.487227 65.215076 0.260848 -4.367311 -2.456398 -2.946994 5.168595 0.000000 0.000000 0.000000 52.448927 -7.860434 4.259328 0.000000 -0.000001 0.000001 6.346443 0.276412 -0.723518 14.862662 1.352667 -0.606154 0.000000 0.000000 0.000000 25.397859 1.548556 0.060529 -23.787343 -0.699831 3.812281 0.000000 0.000000 0.000000 25.397859 1.548556 0.060529 3.282055 -11.154455 -0.322865 -23.304153 -34.650151 -30.083312 -0.000012 -41.915908 -0.000007 0.000000 0.000000 0.000000 25.397859 1.548556 0.060529 0.383119 31.571569 9.612376 -32.161903 33.923702 14.344970 0.000006 24.743668 0.000002 0.000000 0.000000 0.000000 
9.426607 75.596199 -6.305260 0.000000 0.000000 0.000000 51.123389 -8.355586 4.110296 -81.144608 -5.385142 6.604797 44.974883 9.994910 -4.471664 -11.786980 14.077877 -2.238350 0.000000 0.000000 0.000000 51.123389 -8.355586 4.110296 -67.181850 6.602019 -5.591747 64.554741 -1.267139 -4.052818 -3.830547 -2.905213 4.586071 0.000000 0.000000 0.000000 51.123389 -8.355586 4.110296 0.000000 0.000001 0.000000 6.299075 0.249766 -0.649749 14.751819 1.342871 -0.457023 0.000000 0.000000 0.000000 25.248581 1.564636 0.205129 -23.519845 -0.601491 3.713254 0.000000 0.000000 0.000000 25.248581 1.564636 0.205129 3.231801 -11.021963 -0.952626 -22.238210 -34.231549 -31.346631 -0.000009 -40.754523 0.000002 0.000000 0.000000 0.000000 25.248581 1.564636 0.205129 0.372569 31.286412 9.795017 -31.370564 33.055131 15.760125 0.000004 24.457931 0.000009 0.000000 0.000000 0.000000 
9.365914 76.153641 -6.129799 0.000000 0.000000 0.000000 49.853021 -8.850726 3.903186 -78.676095 -5.225439 7.110650 43.312883 9.966534 -4.471172 -11.278125 14.160812 -2.181252 0.000000 0.000000 0.000000 49.853021 -8.850726 3.903186 -67.917311 6.098751 -5.713912 63.254061 -2.473261 -3.712470 -5.067133 -2.852471 4.023142 0.000000 0.000000 0.000000 49.853021 -8.850726 3.903186 0.000001 0.000001 -0.000001 6.231492 0.235499 -0.568462 14.598349 1.342922 -0.303597 0.000000 0.000000 0.000000 25.054396 1.591056 0.352063 -23.262086 -0.523336 3.642465 0.000000 0.000000 0.000000 25.054396 1.591056 0.352063 3.185952 -10.858426 -1.510808 -21.370301 -33.790407 -32.751317 -0.000009 -39.584327 -0.000004 0.000000 0.000000 0.000000 25.054396 1.591056 0.352063 0.370541 30.945934 9.971298 -30.635622 32.079933 17.167363 -0.000008 24.089835 0.000003 0.000000 0.000000 0.000000 
9.286405 76.688423 -5.942371 0.000000 0.000000 0.000000 48.648244 -9.326681 3.654409 -76.288534 -5.078506 7.612907 41.666708 9.941386 -4.431583 -10.763718 14.243577 -2.171591 0.000000 0.000000 0.000000 48.648244 -9.326681 3.654409 -68.360406 5.509134 -5.838993 61.340850 -2.925900 -3.360669 -6.047375 -2.815354 3.743917 0.000000 0.000000 0.000000 48.648244 -9.326681 3.654409 0.000000 0.000000 0.000000 6.137691 0.227439 -0.488783 14.389129 1.340144 -0.160719 0.000000 0.000000 0.000000 24.802056 1.612855 0.488774 -23.003169 -0.470193 3.630964 0.000000 0.000000 0.000000 24.802056 1.612855 0.488774 3.145888 -10.681292 -1.973396 -20.643822 -33.290267 -34.259594 0.000018 -38.432580 -0.000003 0.000000 0.000000 0.000000 24.802056 1.612855 0.488774 0.338673 30.593394 10.265906 -29.882310 30.982018 18.435606 0.000004 23.735908 -0.000001 0.000000 0.000000 0.000000 
9.185575 77.201370 -5.741451 0.000000 0.000000 0.000000 47.468268 -9.777827 3.398290 -73.932276 -4.924461 8.086988 40.030598 9.920444 -4.349964 -10.246596 14.344543 -2.212643 0.000000 0.000000 0.000000 47.468268 -9.777827 3.398290 -68.456869 4.941064 -5.956203 58.823584 -2.504511 -3.041245 -6.705183 -2.814612 3.898374 0.000000 0.000000 0.000000 47.468268 -9.777827 3.398290 0.000000 0.000000 0.000000 6.026350 0.222225 -0.415601 14.142167 1.325227 -0.038995 0.000000 0.000000 0.000000 24.509787 1.618867 0.606506 -22.735468 -0.432709 3.671196 0.000000 0.000000 0.000000 24.509787 1.618867 0.606506 3.110102 -10.528956 -2.364156 -19.965399 -32.730379 -35.749821 0.000011 -37.322128 -0.000014 0.000000 0.000000 0.000000 24.509787 1.618867 0.606506 0.278573 30.262663 10.663072 -29.109829 29.813970 19.562242 -0.000013 23.471645 0.000014 0.000000 0.000000 0.000000 
9.064569 77.695053 -5.529026 0.000000 0.000000 0.000000 46.236341 -10.211528 3.165120 -71.522859 -4.724600 8.525640 38.402848 9.904649 -4.240683 -9.735227 14.459417 -2.293711 0.000000 0.000000 0.000000 46.236341 -10.211528 3.165120 -68.131677 4.467532 -6.051360 55.736604 -1.427569 -2.806757 -7.069676 -2.846914 4.425413 0.000000 0.000000 0.000000 46.236341 -10.211528 3.165120 -0.000001 0.000001 0.000000 5.917201 0.221705 -0.348173 13.898813 1.299357 0.059618 0.000000 0.000000 0.000000 24.219086 1.609678 0.703356 -22.458972 -0.391119 3.719528 0.000000 0.000000 0.000000 24.219086 1.609678 0.703356 3.075838 -10.437443 -2.729131 -19.274321 -32.147228 -37.107438 -0.000016 -36.264527 -0.000001 0.000000 0.000000 0.000000 24.219086 1.609678 0.703356 0.224374 29.960188 11.033936 -28.385583 28.640373 20.652559 0.000004 23.286978 0.000002 0.000000 0.000000 0.000000 
8.925380 78.166672 -5.309013 0.000000 0.000000 0.000000 44.889533 -10.627749 2.963258 -69.009103 -4.449289 8.926610 36.804867 9.895002 -4.121574 -9.244897 14.562617 -2.402693 0.000000 0.000000 0.000000 44.889533 -10.627749 2.963258 -67.348752 4.093971 -6.119383 52.187283 -0.141299 -2.682928 -7.234302 -2.885989 5.074946 0.000000 0.000000 0.000000 44.889533 -10.627749 2.963258 0.000000 0.000001 0.000000 5.826639 0.229119 -0.282357 13.694040 1.268939 0.141101 0.000000 0.000000 0.000000 23.964996 1.592475 0.784294 -22.176576 -0.331579 3.730400 0.000000 0.000000 0.000000 23.964996 1.592475 0.784294 3.041437 -10.411233 -3.090810 -18.573926 -31.593849 -38.305968 -0.000002 -35.261746 -0.000001 0.000000 0.000000 0.000000 23.964996 1.592475 0.784294 0.212400 29.657293 11.250801 -27.771735 27.488843 21.814770 0.000011 23.160719 -0.000013 0.000000 0.000000 0.000000 
8.766732 78.598068 -5.085392 0.000000 0.000000 0.000000 43.416972 -10.998830 2.776403 -66.435631 -4.101853 9.275819 35.318222 9.892395 -3.995150 -8.806285 14.614438 -2.544645 0.000000 0.000000 0.000000 43.416972 -10.998830 2.776403 -66.167410 3.770292 -6.182621 48.385583 0.854258 -2.648911 -7.275617 -2.902193 5.562638 0.000000 0.000000 0.000000 43.416972 -10.998830 2.776403 0.000001 0.000000 0.000000 5.756477 0.243543 -0.214114 13.531313 1.235116 0.214812 0.000000 0.000000 0.000000 23.751021 1.569985 0.858321 -21.883142 -0.259441 3.688205 0.000000 0.000000 0.000000 23.751021 1.569985 0.858321 3.007289 -10.429216 -3.434367 -17.892934 -31.108329 -39.387655 0.000018 -34.312360 0.000004 0.000000 0.000000 0.000000 23.751021 1.569985 0.858321 0.256023 29.306672 11.280000 -27.288861 26.396267 23.097780 0.000002 23.069637 -0.000000 0.000000 0.000000 0.000000 
8.579304 78.933281 -4.862471 0.000000 0.000000 0.000000 41.849785 -11.275852 2.576166 -63.995662 -3.717609 9.561383 34.221413 9.897477 -3.854239 -8.529056 14.550683 -2.758008 0.000000 0.000000 0.000000 41.849785 -11.275852 2.576166 -64.780560 3.437977 -6.285917 44.707703 1.246842 -2.647976 -7.248995 -2.884822 5.761729 0.000000 0.000000 0.000000 41.849785 -11.275852 2.576166 0.000002 0.000000 0.000000 5.695737 0.259069 -0.142332 13.384575 1.190053 0.286522 0.000000 0.000000 0.000000 23.551102 1.535540 0.932192 -21.563126 -0.195128 3.610859 0.000000 0.000000 0.000000 23.551102 1.535540 0.932192 2.974459 -10.466721 -3.738944 -17.231522 -30.703101 -40.381195 0.000000 -33.406722 -0.000018 0.000000 0.000000 0.000000 23.551102 1.535540 0.932192 0.339252 28.878573 11.192385 -26.898439 25.377582 24.462256 0.000002 23.007421 -0.000003 0.000000 0.000000 0.000000 
